<?xml version="1.0" encoding="utf-8"?>
<!-- Generator: Adobe Illustrator 24.1.0, SVG Export Plug-In . SVG Version: 6.00 Build 0)  -->
<svg version="1.1" id="Layer_1" xmlns="http://www.w3.org/2000/svg" xmlns:xlink="http://www.w3.org/1999/xlink" x="0px" y="0px"
	 viewBox="0 0 17 17" style="enable-background:new 0 0 17 17;" xml:space="preserve">
<style type="text/css">
	.st0{fill:#FFFFFF;}
</style>
<path class="st0" d="M13.6,8.5c0,2.8-2.3,5.1-5.1,5.1c-2.8,0-5.1-2.3-5.1-5.1c0-0.3,0-0.7,0.1-1H0v6.8C0,15.8,1.2,17,2.7,17h11.7
	c1.5,0,2.7-1.2,2.7-2.7V7.5h-3.5C13.6,7.8,13.6,8.2,13.6,8.5z M14.3,0H2.7C1.2,0,0,1.2,0,2.7v2.9h4.3c0.9-1.3,2.5-2.2,4.2-2.2
	c1.7,0,3.3,0.9,4.2,2.2H17V2.7C17,1.2,15.8,0,14.3,0z M15.6,3.3c0,0.3-0.2,0.5-0.5,0.5h-1.4c-0.3,0-0.5-0.2-0.5-0.5V1.9
	c0-0.3,0.2-0.5,0.5-0.5h1.4c0.3,0,0.5,0.2,0.5,0.5V3.3z M11.7,8.5c0-1.7-1.4-3.2-3.2-3.2c-1.7,0-3.2,1.4-3.2,3.2s1.4,3.2,3.2,3.2
	C10.2,11.7,11.7,10.2,11.7,8.5z"/>
</svg>
