<?xml version="1.0" encoding="utf-8"?>
<!-- Generator: Adobe Illustrator 24.1.0, SVG Export Plug-In . SVG Version: 6.00 Build 0)  -->
<svg version="1.1" id="Layer_1" xmlns="http://www.w3.org/2000/svg" xmlns:xlink="http://www.w3.org/1999/xlink" x="0px" y="0px"
	 viewBox="0 0 17 17" style="enable-background:new 0 0 17 17;" xml:space="preserve">
<style type="text/css">
	.st0{fill:#FFFFFF;}
</style>
<g>
	<path class="st0" d="M3.8,1.8c0,1-0.7,1.8-2,1.8C0.7,3.6,0,2.8,0,1.8C0,0.8,0.8,0,1.9,0C3.1,0,3.8,0.8,3.8,1.8z M0.1,16.8V5.1h3.6
		v11.7L0.1,16.8L0.1,16.8z"/>
	<path class="st0" d="M5.9,8.8c0-1.5,0-2.7-0.1-3.7H9l0.2,1.6h0.1c0.5-0.8,1.6-1.9,3.6-1.9c2.4,0,4.2,1.6,4.2,5v6.9h-3.6v-6.5
		c0-1.5-0.5-2.5-1.8-2.5c-1,0-1.6,0.7-1.9,1.4C9.6,9.4,9.5,9.7,9.5,10v6.7H5.9V8.8z"/>
</g>
</svg>
